<?xml version="1.0" standalone="no"?>
<!DOCTYPE svg PUBLIC "-//W3C//DTD SVG 20010904//EN"
 "http://www.w3.org/TR/2001/REC-SVG-20010904/DTD/svg10.dtd">
<svg version="1.0" xmlns="http://www.w3.org/2000/svg"
 width="360.000000pt" height="73.000000pt" viewBox="0 0 360.000000 73.000000"
 preserveAspectRatio="xMidYMid meet">

<g transform="translate(0.000000,73.000000) scale(0.100000,-0.100000)"
fill="#000000" stroke="none">
<path d="M2755 655 c13 -11 23 -36 30 -77 l10 -62 50 -13 c70 -18 68 -18 104
32 23 32 29 46 19 49 -7 3 -49 14 -92 26 -44 11 -84 27 -90 34 -6 7 -20 16
-31 20 l-20 6 20 -15z m133 -61 c72 -18 102 -42 38 -30 -66 13 -136 37 -136
47 0 6 6 9 13 6 6 -2 45 -13 85 -23z m-12 -30 c41 -11 62 -20 56 -26 -11 -11
-132 20 -132 33 0 12 0 12 76 -7z m1 -36 c24 -6 41 -14 36 -19 -12 -12 -106
14 -111 31 -3 9 1 11 13 6 10 -3 38 -11 62 -18z"/>
<path d="M2780 485 c0 -8 7 -15 15 -15 8 0 15 7 15 15 0 8 -7 15 -15 15 -8 0
-15 -7 -15 -15z"/>
<path d="M204 479 c-47 -13 -70 -44 -58 -77 9 -25 6 -29 -33 -54 -58 -37 -79
-79 -64 -130 15 -49 50 -71 113 -72 45 -1 53 3 84 36 42 47 48 103 12 117 -37
14 -78 -12 -78 -48 0 -11 8 -6 23 13 29 36 57 30 57 -12 0 -71 -106 -100 -131
-35 -6 16 -5 34 5 56 21 51 52 72 105 72 34 0 46 4 46 15 0 10 -13 17 -35 20
-40 6 -52 36 -24 64 23 24 88 18 92 -8 4 -16 0 -18 -33 -12 -28 6 -36 4 -33
-6 3 -7 13 -15 22 -16 68 -14 94 47 31 74 -38 16 -56 16 -101 3z"/>
<path d="M1551 444 c-60 -50 -22 -116 47 -80 17 9 34 16 37 16 11 0 -7 -154
-21 -182 -17 -34 -18 -48 -1 -48 18 0 57 44 100 112 20 32 55 75 77 97 45 44
100 69 100 47 0 -20 28 -28 51 -15 33 17 22 61 -18 73 -28 7 -39 5 -72 -17
-21 -14 -61 -54 -87 -88 l-49 -62 -3 52 c-2 32 3 63 12 83 9 17 16 33 16 35 0
10 -22 -1 -61 -32 -54 -43 -99 -48 -99 -10 0 14 5 25 10 25 6 0 10 5 10 10 0
17 -17 11 -49 -16z"/>
<path d="M2880 455 c0 -8 7 -15 15 -15 8 0 15 7 15 15 0 8 -7 15 -15 15 -8 0
-15 -7 -15 -15z"/>
<path d="M579 418 c-12 -24 -34 -61 -49 -83 -30 -44 -120 -135 -132 -135 -15
0 -8 30 20 80 20 37 33 50 50 50 12 0 22 5 22 10 0 6 -7 10 -16 10 -10 0 -13
6 -9 19 3 10 -1 24 -10 31 -13 11 -18 10 -30 -6 -8 -10 -15 -22 -15 -27 0 -4
-11 -12 -25 -17 -14 -5 -22 -15 -20 -22 3 -8 -10 -29 -30 -48 -40 -39 -48 -66
-9 -29 l27 24 -17 -32 c-21 -41 -21 -79 0 -87 24 -9 96 36 144 91 l41 48 -31
-64 c-23 -46 -28 -67 -21 -74 8 -8 27 5 66 47 56 59 78 67 57 21 -16 -34 -15
-62 2 -68 12 -5 38 8 94 49 21 16 22 15 22 -3 0 -21 29 -53 49 -53 23 0 86 39
120 74 48 49 35 53 -19 6 -46 -40 -90 -53 -90 -25 0 8 6 15 14 15 18 0 73 45
86 70 22 42 -20 71 -67 46 -15 -8 -52 -39 -81 -70 -30 -31 -58 -54 -63 -51 -5
4 3 28 16 56 35 69 19 87 -46 53 -17 -8 -33 -13 -36 -11 -2 3 5 23 16 46 25
47 26 74 7 91 -12 9 -19 4 -37 -32z m262 -127 c-14 -26 -38 -44 -45 -33 -8 13
33 64 45 56 5 -3 5 -12 0 -23z"/>
<path d="M1237 442 c-34 -37 -9 -74 34 -51 14 7 19 19 17 37 -4 33 -28 39 -51
14z"/>
<path d="M2047 428 c-7 -13 -29 -49 -47 -80 -35 -60 -115 -146 -125 -136 -4 3
1 23 9 43 20 47 20 69 2 85 -16 13 -15 13 -76 -64 -17 -22 -28 -42 -24 -45 3
-3 14 5 24 19 23 29 26 16 5 -20 -17 -29 -19 -66 -5 -75 15 -10 69 24 116 72
48 49 51 50 30 8 -16 -30 -12 -53 12 -72 23 -19 37 -16 70 12 17 14 38 25 49
25 10 0 24 5 30 11 7 7 12 3 17 -15 17 -69 86 -53 180 41 l66 67 0 -37 c0 -30
-4 -37 -19 -37 -34 0 -51 -12 -51 -36 0 -24 25 -44 55 -44 9 0 32 16 52 35 20
19 40 35 45 35 4 0 8 5 8 11 0 6 -7 8 -15 5 -11 -4 -19 3 -25 20 -15 39 -12
52 13 56 32 4 28 32 -6 36 -22 3 -42 -11 -111 -77 -79 -76 -116 -96 -131 -71
-3 5 9 17 26 26 66 33 96 87 65 113 -25 21 -67 0 -126 -60 -31 -33 -60 -59
-63 -59 -4 0 3 18 14 40 23 44 22 73 -3 78 -24 5 -58 -54 -58 -99 0 -37 -21
-66 -40 -54 -17 11 -12 31 35 122 44 85 54 132 28 140 -6 2 -18 -6 -26 -19z
m223 -121 c0 -8 -11 -24 -25 -37 -28 -26 -33 -12 -9 25 18 27 34 33 34 12z
m100 -106 c0 -11 -26 -22 -34 -14 -12 12 -5 23 14 23 11 0 20 -4 20 -9z"/>
<path d="M2735 427 c-37 -17 -91 -76 -140 -153 -44 -71 -77 -107 -129 -145
-35 -26 -37 -29 -15 -29 13 0 33 7 44 16 18 13 20 13 27 -3 5 -14 7 -13 7 8 1
15 14 38 32 55 l30 29 -5 -55 c-5 -49 -4 -51 4 -15 5 22 9 54 9 70 1 17 15 50
32 75 l31 45 -6 -45 c-2 -25 -7 -76 -10 -115 -4 -54 -3 -62 4 -35 5 19 12 73
16 118 6 69 11 89 32 113 13 17 26 28 29 26 2 -3 -3 -58 -11 -123 -9 -65 -16
-130 -15 -144 l1 -25 7 25 c4 14 14 83 21 154 12 114 16 129 34 136 12 4 24 6
27 4 3 -1 0 -40 -7 -86 -17 -121 -27 -234 -20 -227 4 3 13 66 22 140 20 179
20 178 44 172 24 -6 24 -6 5 -158 -8 -65 -15 -128 -14 -140 2 -44 17 35 29
155 l13 123 20 -24 c20 -25 20 -20 2 -219 -7 -74 10 -20 20 65 l8 60 17 -40
c12 -26 16 -57 14 -90 l-4 -50 13 42 c11 37 14 40 30 29 9 -7 17 -26 18 -42 1
-29 1 -29 8 -4 4 15 15 26 29 28 18 3 22 -2 23 -25 2 -27 2 -27 6 -3 4 23 38
59 56 60 4 0 5 -19 2 -43 -4 -32 -3 -36 4 -17 5 14 9 36 10 50 1 26 45 89 55
79 3 -3 2 -30 -4 -59 -5 -29 -10 -62 -9 -74 1 -39 17 23 24 95 6 59 9 68 32
78 l26 12 -7 -51 c-14 -117 -17 -155 -7 -134 5 12 13 58 16 103 7 78 9 81 33
81 24 0 24 -2 18 -50 -14 -114 -16 -155 -7 -135 4 11 12 53 16 93 4 39 11 72
16 72 21 0 31 -46 25 -114 -3 -46 -2 -64 4 -51 5 11 9 35 9 53 1 17 5 32 9 32
13 0 32 -47 33 -78 0 -21 2 -23 7 -9 7 16 9 16 27 3 11 -9 31 -16 45 -16 23 0
23 1 -10 24 -22 14 -51 51 -75 96 -47 85 -68 102 -129 102 -54 0 -98 -25 -140
-77 -31 -40 -81 -75 -108 -75 -37 0 -74 47 -97 125 -29 101 -61 136 -127 141
-28 3 -62 -1 -79 -9z"/>
<path d="M1195 342 c-6 -4 -29 -32 -53 -64 -39 -52 -68 -75 -79 -64 -2 2 7 27
22 55 40 79 17 94 -57 38 l-44 -34 4 28 c6 43 -23 50 -54 13 -13 -16 -21 -35
-19 -42 3 -7 -4 -31 -15 -52 -22 -43 -26 -70 -10 -70 11 0 27 15 94 89 21 23
40 41 42 38 2 -2 -6 -27 -18 -55 -17 -41 -19 -55 -10 -64 18 -18 74 15 125 72
22 25 37 36 32 25 -4 -11 -12 -32 -18 -46 -11 -27 -4 -59 12 -59 5 0 31 15 59
34 l50 35 5 -29 c4 -17 15 -31 27 -35 24 -8 98 25 125 55 28 31 8 37 -23 7
-34 -33 -72 -36 -72 -7 0 29 36 96 55 104 12 4 14 0 9 -19 -7 -27 12 -35 34
-13 31 31 -6 76 -51 63 -12 -4 -52 -37 -89 -73 -37 -36 -70 -63 -73 -60 -4 3
1 23 9 43 9 21 16 45 16 55 0 21 -22 41 -35 32z"/>
</g>
</svg>
